<?xml version="1.0" encoding="UTF-8"?><svg xmlns="http://www.w3.org/2000/svg" xmlns:xlink="http://www.w3.org/1999/xlink" fill-opacity="1" color-rendering="auto" color-interpolation="auto" text-rendering="auto" stroke="black" stroke-linecap="square" width="567" stroke-miterlimit="10" shape-rendering="auto" stroke-opacity="1" fill="black" stroke-dasharray="none" font-weight="normal" stroke-width="1" height="244" font-family="'Dialog'" font-style="normal" stroke-linejoin="miter" font-size="12px" stroke-dashoffset="0" image-rendering="auto">
  <!--Generated by ySVG 2.5-->
  <defs id="genericDefs"/>
  <g>
    <defs id="defs1">
      <clipPath clipPathUnits="userSpaceOnUse" id="clipPath1">
        <path d="M0 0 L567 0 L567 244 L0 244 L0 0 Z"/>
      </clipPath>
      <clipPath clipPathUnits="userSpaceOnUse" id="clipPath2">
        <path d="M99 193 L666 193 L666 437 L99 437 L99 193 Z"/>
      </clipPath>
    </defs>
    <g fill="white" text-rendering="geometricPrecision" shape-rendering="geometricPrecision" transform="translate(-99,-193)" stroke="white">
      <rect x="99" width="567" height="244" y="193" clip-path="url(#clipPath2)" stroke="none"/>
    </g>
    <g text-rendering="geometricPrecision" stroke-miterlimit="1.45" shape-rendering="geometricPrecision" transform="matrix(1,0,0,1,-99,-193)" stroke-linecap="butt">
      <rect fill="none" x="461" width="106" height="30" y="208" clip-path="url(#clipPath2)"/>
      <text x="487.4609" font-size="14px" y="228.291" clip-path="url(#clipPath2)" font-family="sans-serif" stroke="none" font-weight="bold" xml:space="preserve">Service</text>
    </g>
    <g fill="rgb(0,204,255)" text-rendering="geometricPrecision" shape-rendering="geometricPrecision" transform="matrix(1,0,0,1,-99,-193)" stroke="rgb(0,204,255)">
      <rect x="431" width="30" height="48" y="336" clip-path="url(#clipPath2)" stroke="none"/>
    </g>
    <g text-rendering="geometricPrecision" stroke-miterlimit="1.45" shape-rendering="geometricPrecision" transform="matrix(1,0,0,1,-99,-193)" stroke-linecap="butt">
      <rect fill="none" x="431" width="30" height="48" y="336" clip-path="url(#clipPath2)"/>
    </g>
    <g fill="rgb(0,204,255)" text-rendering="geometricPrecision" shape-rendering="geometricPrecision" transform="matrix(1,0,0,1,-99,-193)" stroke="rgb(0,204,255)">
      <rect x="498" width="30" height="48" y="336" clip-path="url(#clipPath2)" stroke="none"/>
    </g>
    <g text-rendering="geometricPrecision" stroke-miterlimit="1.45" shape-rendering="geometricPrecision" transform="matrix(1,0,0,1,-99,-193)" stroke-linecap="butt">
      <rect fill="none" x="498" width="30" height="48" y="336" clip-path="url(#clipPath2)"/>
    </g>
    <g fill="rgb(0,204,255)" text-rendering="geometricPrecision" shape-rendering="geometricPrecision" transform="matrix(1,0,0,1,-99,-193)" stroke="rgb(0,204,255)">
      <rect x="565" width="30" height="48" y="336" clip-path="url(#clipPath2)" stroke="none"/>
    </g>
    <g text-rendering="geometricPrecision" stroke-miterlimit="1.45" shape-rendering="geometricPrecision" transform="matrix(1,0,0,1,-99,-193)" stroke-linecap="butt">
      <rect fill="none" x="565" width="30" height="48" y="336" clip-path="url(#clipPath2)"/>
      <text x="613.6401" font-size="14px" y="356.291" clip-path="url(#clipPath2)" font-family="sans-serif" stroke="none" font-weight="bold" xml:space="preserve">Pods</text>
      <text x="566.3398" font-size="14px" y="287.5352" clip-path="url(#clipPath2)" font-family="sans-serif" stroke="none" font-weight="bold" xml:space="preserve">Labels</text>
      <rect fill="none" x="144" width="106" height="30" y="208" clip-path="url(#clipPath2)"/>
      <text x="170.4609" font-size="14px" y="228.291" clip-path="url(#clipPath2)" font-family="sans-serif" stroke="none" font-weight="bold" xml:space="preserve">Service</text>
    </g>
    <g fill="yellow" text-rendering="geometricPrecision" shape-rendering="geometricPrecision" transform="matrix(1,0,0,1,-99,-193)" stroke="yellow">
      <rect x="114" width="30" height="48" y="336" clip-path="url(#clipPath2)" stroke="none"/>
    </g>
    <g text-rendering="geometricPrecision" stroke-miterlimit="1.45" shape-rendering="geometricPrecision" transform="matrix(1,0,0,1,-99,-193)" stroke-linecap="butt">
      <rect fill="none" x="114" width="30" height="48" y="336" clip-path="url(#clipPath2)"/>
    </g>
    <g fill="yellow" text-rendering="geometricPrecision" shape-rendering="geometricPrecision" transform="matrix(1,0,0,1,-99,-193)" stroke="yellow">
      <rect x="181" width="30" height="48" y="336" clip-path="url(#clipPath2)" stroke="none"/>
    </g>
    <g text-rendering="geometricPrecision" stroke-miterlimit="1.45" shape-rendering="geometricPrecision" transform="matrix(1,0,0,1,-99,-193)" stroke-linecap="butt">
      <rect fill="none" x="181" width="30" height="48" y="336" clip-path="url(#clipPath2)"/>
    </g>
    <g fill="yellow" text-rendering="geometricPrecision" shape-rendering="geometricPrecision" transform="matrix(1,0,0,1,-99,-193)" stroke="yellow">
      <rect x="248" width="30" height="48" y="336" clip-path="url(#clipPath2)" stroke="none"/>
    </g>
    <g text-rendering="geometricPrecision" stroke-miterlimit="1.45" shape-rendering="geometricPrecision" transform="matrix(1,0,0,1,-99,-193)" stroke-linecap="butt">
      <rect fill="none" x="248" width="30" height="48" y="336" clip-path="url(#clipPath2)"/>
      <text x="296.6401" font-size="14px" y="356.291" clip-path="url(#clipPath2)" font-family="sans-serif" stroke="none" font-weight="bold" xml:space="preserve">Pods</text>
      <text x="249.3398" font-size="14px" y="287.5352" clip-path="url(#clipPath2)" font-family="sans-serif" stroke="none" font-weight="bold" xml:space="preserve">Labels</text>
      <text x="120.2295" font-size="14px" y="412.291" clip-path="url(#clipPath2)" font-family="sans-serif" stroke="none" font-weight="bold" xml:space="preserve">v1</text>
      <text x="187.2295" font-size="14px" y="412.291" clip-path="url(#clipPath2)" font-family="sans-serif" stroke="none" font-weight="bold" xml:space="preserve">v1</text>
      <text x="254.2295" font-size="14px" y="412.291" clip-path="url(#clipPath2)" font-family="sans-serif" stroke="none" font-weight="bold" xml:space="preserve">v1</text>
      <text x="437.2295" font-size="14px" y="412.291" clip-path="url(#clipPath2)" font-family="sans-serif" stroke="none" font-weight="bold" xml:space="preserve">v2</text>
      <text x="504.2295" font-size="14px" y="412.291" clip-path="url(#clipPath2)" font-family="sans-serif" stroke="none" font-weight="bold" xml:space="preserve">v2</text>
      <text x="571.2295" font-size="14px" y="412.291" clip-path="url(#clipPath2)" font-family="sans-serif" stroke="none" font-weight="bold" xml:space="preserve">v2</text>
      <path fill="none" d="M506.5547 238 L461.4692 328.8341" clip-path="url(#clipPath2)"/>
      <path d="M457.9124 336 L467.7262 327.4742 L461.9138 327.9384 L458.7689 323.0283 Z" clip-path="url(#clipPath2)" stroke="none"/>
      <path fill="none" d="M513.8636 238 L513 333 L513 336" clip-path="url(#clipPath2)"/>
      <path d="M513 336 L518 324 L513 327 L508 324 Z" clip-path="url(#clipPath2)" stroke="none"/>
      <path fill="none" d="M521.2263 238 L564.9658 328.7928" clip-path="url(#clipPath2)"/>
      <path d="M568.4379 336 L567.7343 323.019 L564.5318 327.8918 L558.7252 327.3592 Z" clip-path="url(#clipPath2)" stroke="none"/>
      <path fill="none" d="M189.5547 238 L144.4692 328.8341" clip-path="url(#clipPath2)"/>
      <path d="M140.9124 336 L150.7262 327.4742 L144.9138 327.9384 L141.7689 323.0283 Z" clip-path="url(#clipPath2)" stroke="none"/>
      <path fill="none" d="M196.8636 238 L196 333 L196 336" clip-path="url(#clipPath2)"/>
      <path d="M196 336 L201 324 L196 327 L191 324 Z" clip-path="url(#clipPath2)" stroke="none"/>
      <path fill="none" d="M204.2263 238 L247.9659 328.7928" clip-path="url(#clipPath2)"/>
      <path d="M251.438 336 L250.7343 323.019 L247.5318 327.8918 L241.7253 327.3592 Z" clip-path="url(#clipPath2)" stroke="none"/>
    </g>
  </g>
</svg>
