<?xml version="1.0" encoding="UTF-8"?><svg xmlns="http://www.w3.org/2000/svg" xmlns:xlink="http://www.w3.org/1999/xlink" fill-opacity="1" color-rendering="auto" color-interpolation="auto" text-rendering="auto" stroke="black" stroke-linecap="square" width="567" stroke-miterlimit="10" shape-rendering="auto" stroke-opacity="1" fill="black" stroke-dasharray="none" font-weight="normal" stroke-width="1" height="263" font-family="'Dialog'" font-style="normal" stroke-linejoin="miter" font-size="12px" stroke-dashoffset="0" image-rendering="auto">
  <!--Generated by ySVG 2.5-->
  <defs id="genericDefs"/>
  <g>
    <defs id="defs1">
      <clipPath clipPathUnits="userSpaceOnUse" id="clipPath1">
        <path d="M0 0 L567 0 L567 263 L0 263 L0 0 Z"/>
      </clipPath>
      <clipPath clipPathUnits="userSpaceOnUse" id="clipPath2">
        <path d="M99 174 L666 174 L666 437 L99 437 L99 174 Z"/>
      </clipPath>
    </defs>
    <g fill="white" text-rendering="geometricPrecision" shape-rendering="geometricPrecision" transform="translate(-99,-174)" stroke="white">
      <rect x="99" width="567" height="263" y="174" clip-path="url(#clipPath2)" stroke="none"/>
    </g>
    <g fill="rgb(153,204,0)" text-rendering="geometricPrecision" shape-rendering="geometricPrecision" transform="matrix(1,0,0,1,-99,-174)" stroke="rgb(153,204,0)">
      <rect x="431" width="30" height="48" y="336" clip-path="url(#clipPath2)" stroke="none"/>
    </g>
    <g text-rendering="geometricPrecision" stroke-miterlimit="1.45" shape-rendering="geometricPrecision" transform="matrix(1,0,0,1,-99,-174)" stroke-linecap="butt">
      <rect fill="none" x="431" width="30" height="48" y="336" clip-path="url(#clipPath2)"/>
    </g>
    <g fill="rgb(153,204,0)" text-rendering="geometricPrecision" shape-rendering="geometricPrecision" transform="matrix(1,0,0,1,-99,-174)" stroke="rgb(153,204,0)">
      <rect x="498" width="30" height="48" y="336" clip-path="url(#clipPath2)" stroke="none"/>
    </g>
    <g text-rendering="geometricPrecision" stroke-miterlimit="1.45" shape-rendering="geometricPrecision" transform="matrix(1,0,0,1,-99,-174)" stroke-linecap="butt">
      <rect fill="none" x="498" width="30" height="48" y="336" clip-path="url(#clipPath2)"/>
    </g>
    <g fill="rgb(153,204,0)" text-rendering="geometricPrecision" shape-rendering="geometricPrecision" transform="matrix(1,0,0,1,-99,-174)" stroke="rgb(153,204,0)">
      <rect x="565" width="30" height="48" y="336" clip-path="url(#clipPath2)" stroke="none"/>
    </g>
    <g text-rendering="geometricPrecision" stroke-miterlimit="1.45" shape-rendering="geometricPrecision" transform="matrix(1,0,0,1,-99,-174)" stroke-linecap="butt">
      <rect fill="none" x="565" width="30" height="48" y="336" clip-path="url(#clipPath2)"/>
      <text x="613.6401" font-size="14px" y="356.291" clip-path="url(#clipPath2)" font-family="sans-serif" stroke="none" font-weight="bold" xml:space="preserve">Pods</text>
      <rect fill="none" x="345" width="106" height="30" y="189" clip-path="url(#clipPath2)"/>
      <text x="371.4609" font-size="14px" y="209.291" clip-path="url(#clipPath2)" font-family="sans-serif" stroke="none" font-weight="bold" xml:space="preserve">Service</text>
    </g>
    <g fill="rgb(0,204,255)" text-rendering="geometricPrecision" shape-rendering="geometricPrecision" transform="matrix(1,0,0,1,-99,-174)" stroke="rgb(0,204,255)">
      <rect x="114" width="30" height="48" y="336" clip-path="url(#clipPath2)" stroke="none"/>
    </g>
    <g text-rendering="geometricPrecision" stroke-miterlimit="1.45" shape-rendering="geometricPrecision" transform="matrix(1,0,0,1,-99,-174)" stroke-linecap="butt">
      <rect fill="none" x="114" width="30" height="48" y="336" clip-path="url(#clipPath2)"/>
    </g>
    <g fill="rgb(0,204,255)" text-rendering="geometricPrecision" shape-rendering="geometricPrecision" transform="matrix(1,0,0,1,-99,-174)" stroke="rgb(0,204,255)">
      <rect x="181" width="30" height="48" y="336" clip-path="url(#clipPath2)" stroke="none"/>
    </g>
    <g text-rendering="geometricPrecision" stroke-miterlimit="1.45" shape-rendering="geometricPrecision" transform="matrix(1,0,0,1,-99,-174)" stroke-linecap="butt">
      <rect fill="none" x="181" width="30" height="48" y="336" clip-path="url(#clipPath2)"/>
    </g>
    <g fill="rgb(0,204,255)" text-rendering="geometricPrecision" shape-rendering="geometricPrecision" transform="matrix(1,0,0,1,-99,-174)" stroke="rgb(0,204,255)">
      <rect x="248" width="30" height="48" y="336" clip-path="url(#clipPath2)" stroke="none"/>
    </g>
    <g text-rendering="geometricPrecision" stroke-miterlimit="1.45" shape-rendering="geometricPrecision" transform="matrix(1,0,0,1,-99,-174)" stroke-linecap="butt">
      <rect fill="none" x="248" width="30" height="48" y="336" clip-path="url(#clipPath2)"/>
      <text x="296.6401" font-size="14px" y="356.291" clip-path="url(#clipPath2)" font-family="sans-serif" stroke="none" font-weight="bold" xml:space="preserve">Pods</text>
      <text x="180.6157" font-size="14px" y="412.291" clip-path="url(#clipPath2)" font-family="sans-serif" stroke="none" font-weight="bold" xml:space="preserve">Blue</text>
      <text x="491.7983" font-size="14px" y="412.291" clip-path="url(#clipPath2)" font-family="sans-serif" stroke="none" font-weight="bold" xml:space="preserve">Green</text>
      <path fill="none" d="M367.4318 219 L136.211 332.4615" clip-path="url(#clipPath2)"/>
      <path d="M129.0291 335.9857 L142.0046 335.1881 L137.1088 332.021 L137.5994 326.2107 Z" clip-path="url(#clipPath2)" stroke="none"/>
      <path fill="none" d="M375.0454 219 L202.7188 331.6095" clip-path="url(#clipPath2)"/>
      <path d="M196.0219 335.9857 L208.8024 333.607 L203.5559 331.0625 L203.3321 325.2358 Z" clip-path="url(#clipPath2)" stroke="none"/>
      <path fill="none" d="M382.6591 219 L268.7493 330.3785" clip-path="url(#clipPath2)"/>
      <path d="M263.0292 335.9714 L275.1049 331.1571 L269.4643 329.6794 L268.1137 324.007 Z" clip-path="url(#clipPath2)" stroke="none"/>
    </g>
  </g>
</svg>
