<?xml version="1.0" encoding="UTF-8"?><svg xmlns="http://www.w3.org/2000/svg" xmlns:xlink="http://www.w3.org/1999/xlink" fill-opacity="1" color-rendering="auto" color-interpolation="auto" text-rendering="auto" stroke="black" stroke-linecap="square" width="567" stroke-miterlimit="10" shape-rendering="auto" stroke-opacity="1" fill="black" stroke-dasharray="none" font-weight="normal" stroke-width="1" height="263" font-family="'Dialog'" font-style="normal" stroke-linejoin="miter" font-size="12px" stroke-dashoffset="0" image-rendering="auto">
  <!--Generated by ySVG 2.5-->
  <defs id="genericDefs"/>
  <g>
    <defs id="defs1">
      <clipPath clipPathUnits="userSpaceOnUse" id="clipPath1">
        <path d="M0 0 L567 0 L567 263 L0 263 L0 0 Z"/>
      </clipPath>
      <clipPath clipPathUnits="userSpaceOnUse" id="clipPath2">
        <path d="M99 174 L666 174 L666 437 L99 437 L99 174 Z"/>
      </clipPath>
    </defs>
    <g fill="white" text-rendering="geometricPrecision" shape-rendering="geometricPrecision" transform="translate(-99,-174)" stroke="white">
      <rect x="99" width="567" height="263" y="174" clip-path="url(#clipPath2)" stroke="none"/>
    </g>
    <g fill="yellow" text-rendering="geometricPrecision" shape-rendering="geometricPrecision" transform="matrix(1,0,0,1,-99,-174)" stroke="yellow">
      <rect x="431" width="30" height="48" y="336" clip-path="url(#clipPath2)" stroke="none"/>
    </g>
    <g text-rendering="geometricPrecision" stroke-miterlimit="1.45" shape-rendering="geometricPrecision" transform="matrix(1,0,0,1,-99,-174)" stroke-linecap="butt">
      <rect fill="none" x="431" width="30" height="48" y="336" clip-path="url(#clipPath2)"/>
    </g>
    <g fill="yellow" text-rendering="geometricPrecision" shape-rendering="geometricPrecision" transform="matrix(1,0,0,1,-99,-174)" stroke="yellow">
      <rect x="498" width="30" height="48" y="336" clip-path="url(#clipPath2)" stroke="none"/>
    </g>
    <g text-rendering="geometricPrecision" stroke-miterlimit="1.45" shape-rendering="geometricPrecision" transform="matrix(1,0,0,1,-99,-174)" stroke-linecap="butt">
      <rect fill="none" x="498" width="30" height="48" y="336" clip-path="url(#clipPath2)"/>
    </g>
    <g fill="yellow" text-rendering="geometricPrecision" shape-rendering="geometricPrecision" transform="matrix(1,0,0,1,-99,-174)" stroke="yellow">
      <rect x="565" width="30" height="48" y="336" clip-path="url(#clipPath2)" stroke="none"/>
    </g>
    <g text-rendering="geometricPrecision" stroke-miterlimit="1.45" shape-rendering="geometricPrecision" transform="matrix(1,0,0,1,-99,-174)" stroke-linecap="butt">
      <rect fill="none" x="565" width="30" height="48" y="336" clip-path="url(#clipPath2)"/>
      <text x="613.6401" font-size="14px" y="356.291" clip-path="url(#clipPath2)" font-family="sans-serif" stroke="none" font-weight="bold" xml:space="preserve">Pods</text>
      <rect fill="none" x="345" width="106" height="30" y="189" clip-path="url(#clipPath2)"/>
      <text x="371.4609" font-size="14px" y="209.291" clip-path="url(#clipPath2)" font-family="sans-serif" stroke="none" font-weight="bold" xml:space="preserve">Service</text>
    </g>
    <g fill="silver" text-rendering="geometricPrecision" shape-rendering="geometricPrecision" transform="matrix(1,0,0,1,-99,-174)" stroke="silver">
      <rect x="114" width="30" height="48" y="336" clip-path="url(#clipPath2)" stroke="none"/>
    </g>
    <g text-rendering="geometricPrecision" stroke-miterlimit="1.45" shape-rendering="geometricPrecision" transform="matrix(1,0,0,1,-99,-174)" stroke-linecap="butt">
      <rect fill="none" x="114" width="30" height="48" y="336" clip-path="url(#clipPath2)"/>
    </g>
    <g fill="silver" text-rendering="geometricPrecision" shape-rendering="geometricPrecision" transform="matrix(1,0,0,1,-99,-174)" stroke="silver">
      <rect x="181" width="30" height="48" y="336" clip-path="url(#clipPath2)" stroke="none"/>
    </g>
    <g text-rendering="geometricPrecision" stroke-miterlimit="1.45" shape-rendering="geometricPrecision" transform="matrix(1,0,0,1,-99,-174)" stroke-linecap="butt">
      <rect fill="none" x="181" width="30" height="48" y="336" clip-path="url(#clipPath2)"/>
    </g>
    <g fill="silver" text-rendering="geometricPrecision" shape-rendering="geometricPrecision" transform="matrix(1,0,0,1,-99,-174)" stroke="silver">
      <rect x="248" width="30" height="48" y="336" clip-path="url(#clipPath2)" stroke="none"/>
    </g>
    <g text-rendering="geometricPrecision" stroke-miterlimit="1.45" shape-rendering="geometricPrecision" transform="matrix(1,0,0,1,-99,-174)" stroke-linecap="butt">
      <rect fill="none" x="248" width="30" height="48" y="336" clip-path="url(#clipPath2)"/>
      <text x="296.6401" font-size="14px" y="356.291" clip-path="url(#clipPath2)" font-family="sans-serif" stroke="none" font-weight="bold" xml:space="preserve">Pods</text>
      <text x="156.9121" font-size="14px" y="412.291" clip-path="url(#clipPath2)" font-family="sans-serif" stroke="none" font-weight="bold" xml:space="preserve">Production</text>
      <text x="487.9224" font-size="14px" y="412.291" clip-path="url(#clipPath2)" font-family="sans-serif" stroke="none" font-weight="bold" xml:space="preserve">Canary</text>
      <path fill="none" d="M398 219 L442.9518 328.5701" clip-path="url(#clipPath2)"/>
      <path d="M445.9883 335.9714 L446.0594 322.9716 L442.5723 327.6449 L436.8078 326.7672 Z" clip-path="url(#clipPath2)" stroke="none"/>
      <path fill="none" d="M375.0454 219 L202.7188 331.6095" clip-path="url(#clipPath2)"/>
      <path d="M196.0219 335.9857 L208.8024 333.607 L203.5559 331.0625 L203.3321 325.2358 Z" clip-path="url(#clipPath2)" stroke="none"/>
      <path fill="none" d="M382.0074 219 L263.1107 330.5168" clip-path="url(#clipPath2)"/>
      <path d="M257.2757 335.9897 L269.4488 331.4273 L263.8401 329.8327 L262.6077 324.1335 Z" clip-path="url(#clipPath2)" stroke="none"/>
    </g>
  </g>
</svg>
